<svg width="25" height="25" viewBox="0 0 25 25" fill="none" xmlns="http://www.w3.org/2000/svg">
<path d="M22.6561 6.19452L16.611 0.149463C16.5152 0.0537597 16.3855 0 16.2502 0H4.67417C3.30688 0 2.19458 1.1124 2.19458 2.47968V22.5204C2.19458 23.8876 3.30693 25 4.67421 25H20.3259C21.6932 25 22.8055 23.8876 22.8055 22.5204V6.55531C22.8055 6.42001 22.7517 6.29022 22.6561 6.19452ZM16.7605 1.74214L21.0636 6.04515H18.2197C17.8299 6.04515 17.4634 5.89335 17.1878 5.61776C16.9123 5.34223 16.7605 4.97577 16.7605 4.58598V1.74214ZM21.7851 22.5203C21.7851 23.325 21.1305 23.9795 20.3259 23.9795H4.67417C3.86953 23.9795 3.21494 23.325 3.21494 22.5203V2.47968C3.21499 1.67505 3.86958 1.02041 4.67417 1.02041H15.7401V4.58588C15.74 5.24823 15.9979 5.87094 16.4662 6.33925C16.9346 6.8076 17.5573 7.06551 18.2197 7.06551H21.785L21.7851 22.5203Z" fill="white"/>
<path d="M13.4322 17.1627H13.2038C12.9221 17.1627 12.6936 17.3911 12.6936 17.6729C12.6936 17.9546 12.9221 18.1831 13.2038 18.1831H13.4322C13.714 18.1831 13.9424 17.9546 13.9424 17.6729C13.9424 17.3911 13.714 17.1627 13.4322 17.1627Z" fill="white"/>
<path d="M11.5533 17.1627H6.59761C6.31587 17.1627 6.0874 17.3911 6.0874 17.6729C6.0874 17.9546 6.31587 18.1831 6.59761 18.1831H11.5533C11.835 18.1831 12.0635 17.9546 12.0635 17.6729C12.0635 17.3911 11.835 17.1627 11.5533 17.1627Z" fill="white"/>
<path d="M18.4024 14.8314H6.59761C6.31587 14.8314 6.0874 15.0598 6.0874 15.3416C6.0874 15.6234 6.31587 15.8518 6.59761 15.8518H18.4024C18.6842 15.8518 18.9126 15.6234 18.9126 15.3416C18.9126 15.0598 18.6842 14.8314 18.4024 14.8314Z" fill="white"/>
<path d="M18.4024 12.5H6.59761C6.31587 12.5 6.0874 12.7284 6.0874 13.0102C6.0874 13.292 6.31587 13.5204 6.59761 13.5204H18.4024C18.6842 13.5204 18.9126 13.292 18.9126 13.0102C18.9126 12.7284 18.6842 12.5 18.4024 12.5Z" fill="white"/>
<path d="M18.4024 10.1687H6.59761C6.31587 10.1687 6.0874 10.3971 6.0874 10.6789C6.0874 10.9607 6.31587 11.1891 6.59761 11.1891H18.4024C18.6842 11.1891 18.9126 10.9607 18.9126 10.6789C18.9126 10.3971 18.6842 10.1687 18.4024 10.1687Z" fill="white"/>
</svg>
